<?xml version="1.0" encoding="UTF-8" standalone="no"?>
<!DOCTYPE svg PUBLIC "-//W3C//DTD SVG 1.1//EN" "http://www.w3.org/Graphics/SVG/1.1/DTD/svg11.dtd">
<svg width="100%" height="100%" viewBox="0 0 108 192" version="1.1" xmlns="http://www.w3.org/2000/svg" xmlns:xlink="http://www.w3.org/1999/xlink" xml:space="preserve" xmlns:serif="http://www.serif.com/" style="fill-rule:evenodd;clip-rule:evenodd;stroke-linejoin:round;stroke-miterlimit:2;">
    <rect id="Plan-de-travail1" serif:id="Plan de travail1" x="0" y="0" width="108" height="192" style="fill:none;"/>
    <g id="Plan-de-travail11" serif:id="Plan de travail1">
        <path d="M108,14.08C108,6.309 101.691,0 93.92,0L14.08,0C6.309,0 0,6.309 0,14.08L0,177.92C0,185.691 6.309,192 14.08,192L93.92,192C101.691,192 108,185.691 108,177.92L108,14.08Z" style="fill:rgb(104,176,246);"/>
        <g transform="matrix(1,0,0,1,-2.74988,-2.77968)">
            <path d="M60.207,62.265C57.908,62.035 55.592,62.035 53.293,62.265L52.154,67.955C49.951,68.301 47.791,68.895 45.714,69.726L41.956,65.383C39.853,66.364 37.848,67.552 35.969,68.931L37.754,74.443C36.014,75.873 34.433,77.496 33.039,79.282L27.669,77.449C26.326,79.378 25.169,81.437 24.213,83.595L28.444,87.452C27.634,89.584 27.055,91.801 26.718,94.063L21.175,95.232C20.951,97.591 20.951,99.968 21.175,102.328L26.718,103.497C27.055,105.758 27.634,107.975 28.444,110.107L24.213,113.964C25.169,116.123 26.326,118.181 27.669,120.11L33.039,118.277C34.433,120.063 36.014,121.686 37.754,123.117L35.969,128.629C37.848,130.007 39.853,131.195 41.956,132.177L45.714,127.834C47.791,128.665 49.951,129.259 52.154,129.605L53.293,135.295C55.592,135.524 57.908,135.524 60.207,135.295L61.345,129.605C63.549,129.259 65.709,128.665 67.786,127.834L71.544,132.177C73.647,131.195 75.652,130.007 77.531,128.629L75.745,123.117C77.485,121.686 79.066,120.063 80.46,118.277L85.83,120.11C87.173,118.181 88.331,116.123 89.287,113.964L85.056,110.107C85.866,107.975 86.444,105.758 86.782,103.497L92.325,102.328C92.548,99.968 92.548,97.591 92.325,95.232L86.782,94.063C86.444,91.801 85.866,89.584 85.056,87.452L89.287,83.595C88.331,81.437 87.173,79.378 85.83,77.449L80.46,79.282C79.066,77.496 77.485,75.873 75.745,74.443L77.531,68.931C75.652,67.552 73.647,66.364 71.544,65.383L67.786,69.726C65.709,68.895 63.549,68.301 61.345,67.955L60.207,62.265ZM56.75,91.442C60.695,91.442 63.898,94.73 63.898,98.78C63.898,102.829 60.695,106.117 56.75,106.117C52.805,106.117 49.601,102.829 49.601,98.78C49.601,94.73 52.805,91.442 56.75,91.442Z" style="fill:white;"/>
        </g>
    </g>
</svg>
