<?xml version="1.0" encoding="UTF-8" standalone="no"?>
<!DOCTYPE svg PUBLIC "-//W3C//DTD SVG 1.1//EN" "http://www.w3.org/Graphics/SVG/1.1/DTD/svg11.dtd">
<svg width="100%" height="100%" viewBox="0 0 5 8" version="1.1" xmlns="http://www.w3.org/2000/svg" xmlns:xlink="http://www.w3.org/1999/xlink" xml:space="preserve" xmlns:serif="http://www.serif.com/" style="fill-rule:evenodd;clip-rule:evenodd;stroke-linejoin:round;stroke-miterlimit:2;">
    <g transform="matrix(0.0393519,0,0,0.0393519,0,0)">
        <rect id="Plan-de-travail1" serif:id="Plan de travail1" x="0" y="0" width="108" height="192" style="fill:none;"/>
        <g id="Plan-de-travail11" serif:id="Plan de travail1">
            <path d="M108,14.08C108,6.309 101.691,0 93.92,0L14.08,0C6.309,0 0,6.309 0,14.08L0,177.92C0,185.691 6.309,192 14.08,192L93.92,192C101.691,192 108,185.691 108,177.92L108,14.08Z" style="fill:rgb(104,176,246);"/>
            <g transform="matrix(-1,0,0,1,115.011,14.0834)">
                <path d="M84.563,26.908C49.88,26.908 21.723,51.557 21.723,81.917C21.723,112.277 49.88,136.925 84.563,136.925C74.158,124.09 65.711,103.86 65.711,81.917C65.711,59.973 74.158,39.744 84.563,26.908Z" style="fill:white;"/>
            </g>
        </g>
    </g>
</svg>
