<?xml version="1.0" encoding="UTF-8" standalone="no"?>
<!DOCTYPE svg PUBLIC "-//W3C//DTD SVG 1.1//EN" "http://www.w3.org/Graphics/SVG/1.1/DTD/svg11.dtd">
<svg width="100%" height="100%" viewBox="0 0 108 192" version="1.1" xmlns="http://www.w3.org/2000/svg" xmlns:xlink="http://www.w3.org/1999/xlink" xml:space="preserve" xmlns:serif="http://www.serif.com/" style="fill-rule:evenodd;clip-rule:evenodd;stroke-linejoin:round;stroke-miterlimit:2;">
    <rect id="Plan-de-travail1" serif:id="Plan de travail1" x="0" y="0" width="108" height="192" style="fill:none;"/>
    <g id="Plan-de-travail11" serif:id="Plan de travail1">
        <path d="M108,14.08C108,6.309 101.691,0 93.92,0L14.08,0C6.309,0 0,6.309 0,14.08L0,177.92C0,185.691 6.309,192 14.08,192L93.92,192C101.691,192 108,185.691 108,177.92L108,14.08Z" style="fill:rgb(104,176,246);"/>
        <g transform="matrix(1,0,0,1,2.42684,1.95207)">
            <path d="M51.573,65.424C59.932,47.373 76.649,47.373 85.007,56.399C93.366,65.424 93.366,83.474 85.007,101.525C79.156,115.062 64.111,128.6 51.573,137.625C39.035,128.6 23.99,115.062 18.139,101.525C9.78,83.474 9.78,65.424 18.139,56.399C26.497,47.373 43.214,47.373 51.573,65.424Z" style="fill:white;"/>
        </g>
    </g>
</svg>
