<?xml version="1.0" encoding="UTF-8" standalone="no"?>
<!DOCTYPE svg PUBLIC "-//W3C//DTD SVG 1.1//EN" "http://www.w3.org/Graphics/SVG/1.1/DTD/svg11.dtd">
<svg width="100%" height="100%" viewBox="0 0 108 192" version="1.1" xmlns="http://www.w3.org/2000/svg" xmlns:xlink="http://www.w3.org/1999/xlink" xml:space="preserve" xmlns:serif="http://www.serif.com/" style="fill-rule:evenodd;clip-rule:evenodd;stroke-linejoin:round;stroke-miterlimit:2;">
    <rect id="Plan-de-travail1" serif:id="Plan de travail1" x="0" y="0" width="108" height="192" style="fill:none;"/>
    <g id="Plan-de-travail11" serif:id="Plan de travail1">
        <path d="M108,14.08C108,6.309 101.691,0 93.92,0L14.08,0C6.309,0 0,6.309 0,14.08L0,177.92C0,185.691 6.309,192 14.08,192L93.92,192C101.691,192 108,185.691 108,177.92L108,14.08Z" style="fill:rgb(104,176,246);"/>
        <g transform="matrix(1,0,0,1,0.282116,48.3151)">
            <path d="M53.718,60.686C74.082,60.686 90.615,76.815 90.615,96.681C90.615,116.547 74.082,132.676 53.718,132.676C33.354,132.676 16.821,116.547 16.821,96.681C16.821,76.815 33.354,60.686 53.718,60.686ZM53.718,78.684C63.9,78.684 72.166,86.748 72.166,96.681C72.166,106.614 63.9,114.678 53.718,114.678C43.536,114.678 35.269,106.614 35.269,96.681C35.269,86.748 43.536,78.684 53.718,78.684Z" style="fill:white;"/>
        </g>
        <g transform="matrix(1,0,0,1,0.282116,-46.428)">
            <path d="M53.718,60.686C74.082,60.686 90.615,76.815 90.615,96.681C90.615,116.547 74.082,132.676 53.718,132.676C33.354,132.676 16.821,116.547 16.821,96.681C16.821,76.815 33.354,60.686 53.718,60.686ZM53.718,78.684C63.9,78.684 72.166,86.748 72.166,96.681C72.166,106.614 63.9,114.678 53.718,114.678C43.536,114.678 35.269,106.614 35.269,96.681C35.269,86.748 43.536,78.684 53.718,78.684Z" style="fill:white;"/>
        </g>
    </g>
</svg>
