<?xml version="1.0" encoding="UTF-8" standalone="no"?>
<!DOCTYPE svg PUBLIC "-//W3C//DTD SVG 1.1//EN" "http://www.w3.org/Graphics/SVG/1.1/DTD/svg11.dtd">
<svg width="100%" height="100%" viewBox="0 0 510 1101" version="1.1" xmlns="http://www.w3.org/2000/svg" xmlns:xlink="http://www.w3.org/1999/xlink" xml:space="preserve" xmlns:serif="http://www.serif.com/" style="fill-rule:evenodd;clip-rule:evenodd;stroke-linejoin:round;stroke-miterlimit:2;">
    <g transform="matrix(4.75916,0,0,5.02605,-2890.85,24.5019)">
        <path d="M620.44,104.965C622.833,104.965 624.777,106.909 624.777,109.302L624.777,123.081C624.777,113.083 632.894,104.965 642.893,104.965L679.125,104.965C689.124,104.965 697.241,113.083 697.241,123.081L697.241,109.302C697.241,106.909 699.185,104.965 701.578,104.965L710.253,104.965C712.646,104.965 714.59,106.909 714.59,109.302L714.59,180.603C714.59,182.996 712.646,184.94 710.253,184.94L701.578,184.94C699.185,184.94 697.241,182.997 697.241,180.603L697.241,196.068C697.241,206.066 689.124,214.184 679.125,214.184L642.893,214.184C632.894,214.184 624.777,206.066 624.777,196.068L624.777,180.603C624.777,182.997 622.833,184.94 620.44,184.94L611.765,184.94C609.372,184.94 607.428,182.997 607.428,180.603L607.428,109.302C607.428,106.909 609.371,104.965 611.765,104.965L620.44,104.965ZM661.009,48C683.48,48 701.724,60.763 701.724,76.483C701.724,92.203 683.48,104.965 661.009,104.965C638.538,104.965 620.294,92.203 620.294,76.483C620.294,60.763 638.538,48 661.009,48Z" style="fill:rgb(186,186,186);"/>
    </g>
</svg>
